<svg width="167" height="74" viewBox="0 0 167 74" fill="none" xmlns="http://www.w3.org/2000/svg">
<path d="M72.64 21.324C72.64 22.1392 71.9792 22.8 71.164 22.8C70.3488 22.8 69.688 22.1392 69.688 21.324V7.476C69.688 6.66083 70.3488 6 71.164 6C71.9792 6 72.64 6.66083 72.64 7.476V21.324Z" fill="#27D1CE"/>
<path d="M81.0083 11.484C81.0083 9.97958 79.7887 8.76 78.2843 8.76H76.9403C76.1781 8.76 75.5603 8.14215 75.5603 7.38C75.5603 6.61785 76.1781 6 76.9403 6H88.0283C88.7905 6 89.4083 6.61785 89.4083 7.38C89.4083 8.14215 88.7905 8.76 88.0283 8.76H86.6843C85.1799 8.76 83.9603 9.97958 83.9603 11.484V21.324C83.9603 22.1392 83.2995 22.8 82.4843 22.8C81.6691 22.8 81.0083 22.1392 81.0083 21.324V11.484Z" fill="#27D1CE"/>
<path d="M76.072 40.4001C76.072 39.8881 75.88 39.44 75.496 39.056C75.128 38.656 74.664 38.3361 74.104 38.0961C73.544 37.84 72.928 37.552 72.256 37.232C71.6 36.896 70.992 36.5521 70.432 36.2001C69.872 35.8321 69.4 35.328 69.016 34.688C68.648 34.032 68.464 33.28 68.464 32.432C68.464 31.136 68.936 30.0401 69.88 29.1441C70.856 28.2481 72.128 27.8 73.696 27.8C75.3337 27.8 76.6587 28.1554 77.6709 28.8662C78.2002 29.2378 78.2278 29.9738 77.8509 30.4993C77.3573 31.1872 76.3685 31.239 75.5933 30.8984C75.0799 30.6728 74.5275 30.5601 73.936 30.5601C73.216 30.5601 72.64 30.728 72.208 31.064C71.792 31.4 71.584 31.8481 71.584 32.4081C71.584 32.6961 71.64 32.968 71.752 33.224C71.864 33.464 71.984 33.6641 72.112 33.8241C72.256 33.9841 72.48 34.1601 72.784 34.3521C73.104 34.5441 73.352 34.688 73.528 34.784C73.72 34.864 74.032 35.0001 74.464 35.1921C74.896 35.3841 75.2 35.52 75.376 35.6C76.08 35.92 76.696 36.2561 77.224 36.6081C77.816 36.9601 78.288 37.464 78.64 38.12C79.008 38.776 79.192 39.528 79.192 40.376C79.192 41.784 78.656 42.928 77.584 43.808C76.512 44.688 75.176 45.1281 73.576 45.1281C72.456 45.1281 71.344 44.896 70.24 44.432C69.5251 44.1071 68.9643 43.7052 68.5574 43.2264C68.2091 42.8164 68.3001 42.2239 68.6445 41.8106C69.2148 41.1262 70.2865 41.168 71.0493 41.6282C71.1895 41.7128 71.3358 41.7914 71.488 41.8641C72.208 42.2001 72.92 42.368 73.624 42.368C74.36 42.368 74.952 42.192 75.4 41.84C75.848 41.488 76.072 41.0081 76.072 40.4001Z" fill="#27D1CE"/>
<path d="M92.9208 41.8185C93.6634 41.4881 94.5968 41.6881 94.9665 42.4118C95.2178 42.9036 95.1394 43.5138 94.6833 43.8253C94.2466 44.1235 93.7207 44.3818 93.1056 44.6C92.1296 44.952 91.0976 45.1281 90.0096 45.1281C87.4496 45.1281 85.3616 44.336 83.7456 42.752C82.1456 41.168 81.3456 39.0721 81.3456 36.4641C81.3456 33.9681 82.1056 31.8961 83.6256 30.2481C85.1296 28.6161 87.2336 27.8 89.9376 27.8C91.6062 27.8 93.0082 28.1441 94.1438 28.8321C94.7043 29.1717 94.8044 29.9098 94.4654 30.4706C94.064 31.1347 93.1932 31.3148 92.4716 31.0294C91.6802 30.7165 90.8355 30.5601 89.9376 30.5601C88.3376 30.5601 87.0256 31.096 86.0016 32.168C84.9776 33.24 84.4656 34.6721 84.4656 36.4641C84.4656 38.2241 85.0016 39.648 86.0736 40.736C87.1616 41.824 88.5616 42.368 90.2736 42.368C91.2149 42.368 92.0973 42.1849 92.9208 41.8185Z" fill="#27D1CE"/>
<path d="M111.88 43.4001C111.88 44.2086 111.225 44.8641 110.416 44.8641C109.608 44.8641 108.952 44.2086 108.952 43.4001V41.2761C108.952 39.2945 107.346 37.688 105.364 37.688H104.86C102.879 37.688 101.272 39.2945 101.272 41.276V43.388C101.272 44.2032 100.611 44.8641 99.7961 44.8641C98.981 44.8641 98.3201 44.2032 98.3201 43.3881V29.5401C98.3201 28.7249 98.981 28.064 99.7961 28.064C100.611 28.064 101.272 28.7249 101.272 29.5401V31.496C101.272 33.3915 102.809 34.928 104.704 34.928H105.52C107.416 34.928 108.952 33.3915 108.952 31.496V29.528C108.952 28.7195 109.608 28.064 110.416 28.064C111.225 28.064 111.88 28.7195 111.88 29.528V43.4001Z" fill="#27D1CE"/>
<path d="M115.283 36.4641C115.283 34.0161 116.099 31.96 117.731 30.296C119.395 28.632 121.491 27.8 124.019 27.8C126.547 27.8 128.635 28.6 130.283 30.2001C131.947 31.816 132.779 33.904 132.779 36.4641C132.779 38.9761 131.947 41.048 130.283 42.68C128.619 44.312 126.531 45.1281 124.019 45.1281C121.491 45.1281 119.403 44.3281 117.755 42.7281C116.107 41.128 115.283 39.0401 115.283 36.4641ZM118.403 36.4641C118.403 38.1601 118.939 39.568 120.011 40.688C121.083 41.808 122.419 42.368 124.019 42.368C125.747 42.368 127.115 41.808 128.123 40.688C129.147 39.568 129.659 38.1601 129.659 36.4641C129.659 34.7521 129.115 33.336 128.027 32.216C126.939 31.112 125.603 30.5601 124.019 30.5601C122.403 30.5601 121.059 31.112 119.987 32.216C118.931 33.32 118.403 34.7361 118.403 36.4641Z" fill="#27D1CE"/>
<path d="M134.947 36.4641C134.947 34.0161 135.763 31.96 137.395 30.296C139.059 28.632 141.155 27.8 143.683 27.8C146.211 27.8 148.299 28.6 149.947 30.2001C151.611 31.816 152.443 33.904 152.443 36.4641C152.443 38.9761 151.611 41.048 149.947 42.68C148.283 44.312 146.195 45.1281 143.683 45.1281C141.155 45.1281 139.067 44.3281 137.419 42.7281C135.771 41.128 134.947 39.0401 134.947 36.4641ZM138.067 36.4641C138.067 38.1601 138.603 39.568 139.675 40.688C140.747 41.808 142.083 42.368 143.683 42.368C145.411 42.368 146.779 41.808 147.787 40.688C148.811 39.568 149.323 38.1601 149.323 36.4641C149.323 34.7521 148.779 33.336 147.691 32.216C146.603 31.112 145.267 30.5601 143.683 30.5601C142.067 30.5601 140.723 31.112 139.651 32.216C138.595 33.32 138.067 34.7361 138.067 36.4641Z" fill="#27D1CE"/>
<path d="M166.371 43.4841C166.371 44.2462 165.753 44.8641 164.991 44.8641H161.115C158.212 44.8641 155.859 42.5109 155.859 39.6081V29.54C155.859 28.7249 156.52 28.064 157.335 28.064C158.15 28.064 158.811 28.7249 158.811 29.54V38.3241C158.811 40.4117 160.504 42.104 162.591 42.104H164.991C165.753 42.104 166.371 42.7219 166.371 43.4841Z" fill="#27D1CE"/>
<path fill-rule="evenodd" clip-rule="evenodd" d="M0 6C0 2.68629 2.68629 0 6 0C8.76142 0 11 2.23858 11 5V23C11 24.1046 11.8954 25 13 25C14.1046 25 15 24.1046 15 23V6C15 2.68629 17.6863 0 21 0H46C49.3137 0 52 2.68629 52 6V27.1842C52 27.6713 51.4336 28 50.9464 28H35.0536C33.9194 28 33 28.9194 33 30.0536C33 31.1877 33.9194 32.1071 35.0536 32.1071H36.9341C39.1069 32.1071 40.8683 33.8685 40.8683 36.0413V50.8683C40.8683 51.387 40.5189 52 40.0001 52H6C2.68629 52 0 49.3137 0 46V6ZM50.9464 32.1071C51.4336 32.1071 52 32.4358 52 32.923V46C52 49.3137 49.3137 52 46 52C45.4812 52 45.1317 51.387 45.1317 50.8683V36.0413C45.1317 33.8685 46.8931 32.1071 49.0659 32.1071H50.9464Z" fill="#27D1CE"/>
<path d="M3.30259 72.5366C2.60073 72.5366 1.94694 72.3854 1.34123 72.0829C0.887284 71.8526 0.519763 71.5742 0.238663 71.2477C0.0827037 71.0666 0.101684 70.8017 0.252428 70.6162C0.472831 70.345 0.88598 70.3454 1.15738 70.5655C1.36878 70.7371 1.60313 70.8868 1.86041 71.0146C2.34114 71.2488 2.79783 71.3659 3.23048 71.3659C3.92273 71.3659 4.47556 71.1902 4.88899 70.839C5.31203 70.4878 5.52355 70.0098 5.52355 69.4049C5.52355 68.8976 5.35048 68.4927 5.00436 68.1902C4.65824 67.8878 4.1727 67.7366 3.54776 67.7366H2.96496C2.64167 67.7366 2.3796 67.4745 2.3796 67.1512C2.3796 66.8279 2.64167 66.5659 2.96496 66.5659H3.46123C3.9035 66.5659 4.29289 66.4049 4.6294 66.0829C4.9659 65.7415 5.13416 65.3268 5.13416 64.839C5.13416 64.3122 4.9659 63.9024 4.6294 63.6098C4.29289 63.3171 3.85062 63.1707 3.30259 63.1707C2.61143 63.1707 1.99783 63.3981 1.46177 63.8527C1.20312 64.0721 0.807243 64.0823 0.583192 63.8277C0.411202 63.6322 0.395505 63.3395 0.576149 63.152C0.87373 62.8432 1.22971 62.5909 1.64408 62.3951C2.20173 62.1317 2.79783 62 3.43239 62C4.32654 62 5.03801 62.2439 5.56681 62.7317C6.09561 63.2098 6.36001 63.8732 6.36001 64.722C6.36001 65.2 6.23021 65.6537 5.97062 66.0829C5.72368 66.4973 5.37353 66.8213 4.92018 67.0548C4.90993 67.0601 4.90341 67.0707 4.90341 67.0822C4.90341 67.0968 4.91379 67.1094 4.92808 67.1124C5.50258 67.2322 5.94624 67.5086 6.25906 67.9415C6.58595 68.3707 6.7494 68.8976 6.7494 69.522C6.7494 70.4488 6.41289 71.1805 5.73987 71.7171C5.06686 72.2634 4.25443 72.5366 3.30259 72.5366Z" fill="#27D1CE"/>
<path d="M8.98658 73.4592C8.98658 73.7579 8.74445 74 8.44576 74C8.14708 74 7.90494 73.7579 7.90494 73.4592V71.8374C7.90494 71.5366 8.14883 71.2927 8.44968 71.2927C8.61577 71.2927 8.77572 71.2186 8.8611 71.0761C9.04105 70.7758 9.20305 70.3602 9.34712 69.8293C9.5298 69.1463 9.64998 68.3854 9.70767 67.5463C9.76434 66.5687 10.5737 65.8049 11.553 65.8049H11.9583C13.2163 65.8049 14.2361 66.8247 14.2361 68.0827V70.7519C14.2361 71.0506 14.4782 71.2927 14.7769 71.2927C15.0756 71.2927 15.3177 71.5348 15.3177 71.8335V73.4592C15.3177 73.7579 15.0756 74 14.7769 74C14.4782 74 14.2361 73.7579 14.2361 73.4592V73.1951C14.2361 72.7506 13.8758 72.3902 13.4312 72.3902H9.79146C9.34694 72.3902 8.98658 72.7506 8.98658 73.1951V73.4592ZM11.9503 66.9024C11.354 66.9024 10.8599 67.3651 10.8208 67.9602L10.8181 68C10.7605 68.7317 10.6451 69.4 10.472 70.0049C10.3113 70.5668 10.7539 71.2927 11.3383 71.2927H12.0175C12.6056 71.2927 13.0824 70.8159 13.0824 70.2278V68.0345C13.0824 67.4093 12.5755 66.9024 11.9503 66.9024Z" fill="#27D1CE"/>
<path d="M21.1394 71.1394C21.429 70.9945 21.8223 71.0818 21.9403 71.3833C22.0086 71.5581 21.9646 71.7596 21.8146 71.8724C21.2261 72.3152 20.4933 72.5366 19.6163 72.5366C18.5587 72.5366 17.7175 72.2244 17.0925 71.6C16.458 70.9756 16.1407 70.1415 16.1407 69.0976C16.1407 68.1122 16.4387 67.2927 17.0348 66.639C17.6213 65.9854 18.4386 65.6585 19.4865 65.6585C20.3519 65.6585 21.0681 65.9415 21.6354 66.5073C22.2123 67.0634 22.5007 67.7854 22.5007 68.6732C22.5007 69.135 22.0956 69.4634 21.6338 69.4634H19.0814C18.1956 69.4634 17.4481 70.3309 18.1165 70.9122C18.5299 71.2634 19.0587 71.439 19.7029 71.439C20.2613 71.439 20.7402 71.3391 21.1394 71.1394ZM19.4289 66.7561C18.8616 66.7561 18.3905 66.9171 18.0155 67.239C17.4336 67.7518 18.053 68.5122 18.8286 68.5122H19.8672C20.648 68.5122 21.3281 67.7554 20.7557 67.2244C20.4288 66.9122 19.9865 66.7561 19.4289 66.7561Z" fill="#27D1CE"/>
<path d="M28.4815 71.0325C28.7543 70.8451 29.1508 70.8681 29.3303 71.1461C29.4437 71.3219 29.4381 71.5534 29.2913 71.7025C28.7439 72.2585 27.9883 72.5366 27.0244 72.5366C25.986 72.5366 25.1448 72.2244 24.5006 71.6C23.866 70.9756 23.5488 70.1415 23.5488 69.0976C23.5488 68.1317 23.8612 67.3171 24.4862 66.6537C25.1111 65.9902 25.8947 65.6585 26.8369 65.6585C27.7828 65.6585 28.5315 65.8586 29.0831 66.2587C29.2765 66.399 29.3066 66.6653 29.1869 66.8721C29.017 67.1657 28.6182 67.2215 28.3183 67.063C27.931 66.8584 27.4901 66.7561 26.9956 66.7561C26.3898 66.7561 25.8659 66.9805 25.4236 67.4293C24.9909 67.8683 24.7746 68.4244 24.7746 69.0976C24.7746 69.8098 24.9957 70.3756 25.438 70.7951C25.8899 71.2244 26.4475 71.439 27.1109 71.439C27.63 71.439 28.0868 71.3035 28.4815 71.0325Z" fill="#27D1CE"/>
<path d="M33.2154 72.3902C32.0047 72.3902 31.0233 71.4088 31.0233 70.1981V66.3817C31.0233 66.0632 31.2816 65.8049 31.6002 65.8049C31.9188 65.8049 32.177 66.0632 32.177 66.3818V66.7927C32.177 67.3382 32.6193 67.7805 33.1648 67.7805H33.3596C34.2442 67.7805 34.8931 67.9854 35.3066 68.3951C35.72 68.7951 35.9267 69.3463 35.9267 70.0488C35.9267 70.7122 35.7104 71.2683 35.2777 71.7171C34.8451 72.1659 34.1576 72.3902 33.2154 72.3902ZM33.1433 68.878C32.6097 68.878 32.177 69.3107 32.177 69.8443V70.3408C32.177 70.8665 32.6032 71.2927 33.1289 71.2927C34.1769 71.2927 34.7009 70.8927 34.7009 70.0927C34.7009 69.2829 34.1817 68.878 33.1433 68.878Z" fill="#27D1CE"/>
<path d="M40.9004 73.4592C40.9004 73.7579 40.6583 74 40.3596 74C40.0609 74 39.8188 73.7579 39.8188 73.4592V71.8374C39.8188 71.5366 40.0627 71.2927 40.3635 71.2927C40.5296 71.2927 40.6896 71.2186 40.7749 71.0761C40.9549 70.7758 41.1169 70.3602 41.261 69.8293C41.4436 69.1463 41.5638 68.3854 41.6215 67.5463C41.6782 66.5687 42.4875 65.8049 43.4669 65.8049H43.8721C45.1301 65.8049 46.15 66.8247 46.15 68.0827V70.7519C46.15 71.0506 46.3921 71.2927 46.6908 71.2927C46.9895 71.2927 47.2316 71.5348 47.2316 71.8335V73.4592C47.2316 73.7579 46.9895 74 46.6908 74C46.3921 74 46.15 73.7579 46.15 73.4592V73.1951C46.15 72.7506 45.7896 72.3902 45.3451 72.3902H41.7053C41.2608 72.3902 40.9004 72.7506 40.9004 73.1951V73.4592ZM43.8642 66.9024C43.2678 66.9024 42.7737 67.3651 42.7346 67.9602L42.732 68C42.6743 68.7317 42.5589 69.4 42.3859 70.0049C42.2251 70.5668 42.6677 71.2927 43.2522 71.2927H43.9314C44.5195 71.2927 44.9962 70.8159 44.9962 70.2278V68.0345C44.9962 67.4093 44.4894 66.9024 43.8642 66.9024Z" fill="#27D1CE"/>
<path d="M49.0064 71.5707C48.3718 70.9073 48.0545 70.0829 48.0545 69.0976C48.0545 68.1024 48.3718 67.2829 49.0064 66.639C49.6505 65.9854 50.487 65.6585 51.5158 65.6585C52.5445 65.6585 53.3762 65.9854 54.0107 66.639C54.6549 67.2829 54.977 68.1024 54.977 69.0976C54.977 70.0927 54.6549 70.9171 54.0107 71.5707C53.3762 72.2146 52.5445 72.5366 51.5158 72.5366C50.4966 72.5366 49.6602 72.2146 49.0064 71.5707ZM49.9149 67.4146C49.4919 67.8439 49.2804 68.4049 49.2804 69.0976C49.2804 69.7902 49.4871 70.3512 49.9005 70.7805C50.3236 71.2195 50.862 71.439 51.5158 71.439C52.1696 71.439 52.7032 71.2244 53.1166 70.7951C53.5396 70.3561 53.7511 69.7902 53.7511 69.0976C53.7511 68.4244 53.5396 67.8634 53.1166 67.4146C52.7032 66.9756 52.1696 66.7561 51.5158 66.7561C50.862 66.7561 50.3284 66.9756 49.9149 67.4146Z" fill="#27D1CE"/>
<path d="M61.9838 71.8134C61.9838 72.132 61.7256 72.3902 61.407 72.3902C61.0884 72.3902 60.8301 72.132 60.8301 71.8134V68.1518C60.8301 67.5022 60.3035 66.9756 59.6539 66.9756C59.0338 66.9756 58.5202 67.457 58.4801 68.0757L58.4793 68.0878C58.4024 68.9951 58.2871 69.7512 58.1332 70.3561C57.989 70.9512 57.7967 71.4 57.5564 71.7024C57.3256 71.9951 57.0804 72.2 56.8208 72.3171C56.6861 72.3728 56.5358 72.414 56.37 72.4408C56.0899 72.4861 55.8524 72.2595 55.831 71.9767L55.8079 71.6727C55.7946 71.4969 55.9472 71.3492 56.1142 71.2927C56.2295 71.2439 56.3545 71.1463 56.4891 71C56.6334 70.8537 56.7583 70.6585 56.8641 70.4146C56.9795 70.1707 57.0804 69.8293 57.167 69.3902C57.2631 68.9415 57.3256 68.4293 57.3544 67.8537C57.4192 66.704 58.3703 65.8049 59.5218 65.8049H59.6633C60.9449 65.8049 61.9838 66.8438 61.9838 68.1254V71.8134Z" fill="#27D1CE"/>
<path d="M70.8304 66.0469C70.9372 65.8952 71.1111 65.8049 71.2967 65.8049C71.765 65.8049 72.0338 66.3381 71.7551 66.7145L70.7164 68.1178C70.3369 68.6303 70.3369 69.3307 70.7163 69.8432L71.928 71.4802C72.2067 71.8568 71.9379 72.3902 71.4693 72.3902C71.284 72.3902 71.1102 72.3002 71.0033 72.1488L70.0559 70.8077C69.2821 69.712 69.2809 68.2481 70.053 67.1512L70.8304 66.0469ZM68.4769 71.8134C68.4769 72.132 68.2186 72.3902 67.9 72.3902C67.5814 72.3902 67.3232 72.132 67.3232 71.8134V66.3818C67.3232 66.0632 67.5814 65.8049 67.9 65.8049C68.2186 65.8049 68.4769 66.0632 68.4769 66.3818V71.8134ZM64.3586 72.3902C63.8938 72.3902 63.6254 71.863 63.8988 71.4872L65.0949 69.843C65.4683 69.3297 65.4654 68.6334 65.0877 68.1232L64.0512 66.723C63.77 66.3431 64.0412 65.8049 64.5139 65.8049C64.7018 65.8049 64.8779 65.8966 64.9856 66.0506L65.7624 67.1613C66.5266 68.254 66.5274 69.7075 65.7643 70.8009L64.8249 72.1471C64.7185 72.2994 64.5444 72.3902 64.3586 72.3902Z" fill="#27D1CE"/>
<path d="M78.0661 71.1394C78.3556 70.9945 78.749 71.0818 78.8669 71.3833C78.9352 71.5581 78.8913 71.7596 78.7413 71.8724C78.1527 72.3152 77.42 72.5366 76.543 72.5366C75.4854 72.5366 74.6441 72.2244 74.0192 71.6C73.3846 70.9756 73.0673 70.1415 73.0673 69.0976C73.0673 68.1122 73.3654 67.2927 73.9615 66.639C74.548 65.9854 75.3652 65.6585 76.4132 65.6585C77.2785 65.6585 77.9948 65.9415 78.562 66.5073C79.1389 67.0634 79.4273 67.7854 79.4273 68.6732C79.4273 69.135 79.0223 69.4634 78.5605 69.4634H76.008C75.1222 69.4634 74.3748 70.3309 75.0431 70.9122C75.4565 71.2634 75.9853 71.439 76.6295 71.439C77.1879 71.439 77.6668 71.3391 78.0661 71.1394ZM76.3555 66.7561C75.7882 66.7561 75.3171 66.9171 74.9422 67.239C74.3602 67.7518 74.9796 68.5122 75.7553 68.5122H76.7938C77.5746 68.5122 78.2547 67.7554 77.6823 67.2244C77.3554 66.9122 76.9131 66.7561 76.3555 66.7561Z" fill="#27D1CE"/>
<path d="M86.9055 71.8134C86.9055 72.132 86.6472 72.3902 86.3286 72.3902C86.01 72.3902 85.7517 72.132 85.7517 71.8134V71C85.7517 70.2322 85.1293 69.6098 84.3615 69.6098H83.5365C82.7687 69.6098 82.1463 70.2322 82.1463 71V71.8134C82.1463 72.132 81.888 72.3902 81.5694 72.3902C81.2508 72.3902 80.9925 72.132 80.9925 71.8134V66.3818C80.9925 66.0632 81.2508 65.8049 81.5694 65.8049C81.888 65.8049 82.1463 66.0632 82.1463 66.3818V67.1585C82.1463 67.9061 82.7523 68.5122 83.5 68.5122H84.3981C85.1457 68.5122 85.7517 67.9061 85.7517 67.1585V66.3818C85.7517 66.0632 86.01 65.8049 86.3286 65.8049C86.6472 65.8049 86.9055 66.0632 86.9055 66.3818V71.8134Z" fill="#27D1CE"/>
<path d="M96.7743 62.3951C97.0467 62.2569 97.428 62.2643 97.5985 62.5178L97.6651 62.6168C97.7885 62.8003 97.7902 63.0469 97.6321 63.2015C97.4547 63.3748 97.2553 63.5012 97.0339 63.5805C96.6781 63.7073 96.2743 63.8049 95.8224 63.8732C95.3802 63.9415 94.9619 64.0634 94.5677 64.239C93.5906 64.6959 93.043 65.7484 92.9249 67.3964C92.9242 67.4062 92.932 67.4146 92.9417 67.4146C92.9483 67.4146 92.9543 67.4108 92.957 67.4048C93.1689 66.9508 93.5087 66.5833 93.9764 66.3024C94.4572 66.0195 94.9715 65.878 95.5196 65.878C96.4426 65.878 97.1733 66.1756 97.7117 66.7707C98.2597 67.3659 98.5337 68.161 98.5337 69.1561C98.5337 70.0927 98.2213 70.8927 97.5963 71.5561C96.981 72.2098 96.183 72.5366 95.2023 72.5366C94.1447 72.5366 93.3082 72.1707 92.6929 71.439C92.0776 70.7171 91.7699 69.7171 91.7699 68.439C91.7699 65.5902 92.5727 63.8195 94.1783 63.1268C94.5437 62.961 94.9667 62.839 95.4475 62.761C95.8224 62.6927 96.0916 62.639 96.2551 62.6C96.4185 62.561 96.5916 62.4927 96.7743 62.3951ZM93.2304 68.0712C93.011 68.4322 92.9788 68.8739 93.0385 69.2922C93.1173 69.8436 93.305 70.3055 93.6015 70.678C94.0053 71.1854 94.5293 71.439 95.1735 71.439C95.7984 71.439 96.308 71.2244 96.7022 70.7951C97.106 70.3756 97.3079 69.8488 97.3079 69.2146C97.3079 68.5415 97.1204 68 96.7454 67.5902C96.3801 67.1805 95.8753 66.9756 95.2311 66.9756C94.6447 66.9756 94.1543 67.1415 93.7601 67.4732C93.5376 67.657 93.361 67.8563 93.2304 68.0712Z" fill="#27D1CE"/>
<path d="M102.28 72.3902C101.125 72.3902 100.189 71.454 100.189 70.2991V66.3818C100.189 66.0632 100.447 65.8049 100.766 65.8049C101.084 65.8049 101.342 66.0632 101.342 66.3818V66.7927C101.342 67.3382 101.785 67.7805 102.33 67.7805H102.41C103.294 67.7805 103.943 67.9854 104.357 68.3951C104.77 68.7951 104.977 69.3463 104.977 70.0488C104.977 70.7122 104.76 71.2683 104.328 71.7171C103.914 72.1659 103.232 72.3902 102.28 72.3902ZM107.371 71.8134C107.371 72.132 107.113 72.3902 106.794 72.3902C106.475 72.3902 106.217 72.132 106.217 71.8134V66.3817C106.217 66.0632 106.475 65.8049 106.794 65.8049C107.113 65.8049 107.371 66.0632 107.371 66.3817V71.8134ZM102.193 68.878C101.723 68.878 101.342 69.259 101.342 69.7289V70.4562C101.342 70.9182 101.717 71.2927 102.179 71.2927C102.727 71.2927 103.126 71.1951 103.376 71C103.626 70.8049 103.751 70.5024 103.751 70.0927C103.751 69.2829 103.232 68.878 102.193 68.878Z" fill="#27D1CE"/>
<path d="M110.999 68.1654C110.999 67.5083 110.467 66.9756 109.81 66.9756H109.205C108.882 66.9756 108.62 66.7135 108.62 66.3902C108.62 66.067 108.882 65.8049 109.205 65.8049H113.947C114.271 65.8049 114.533 66.067 114.533 66.3902C114.533 66.7135 114.271 66.9756 113.947 66.9756H113.343C112.686 66.9756 112.153 67.5083 112.153 68.1654V71.8134C112.153 72.132 111.895 72.3902 111.576 72.3902C111.258 72.3902 110.999 72.132 110.999 71.8134V68.1654Z" fill="#27D1CE"/>
<path d="M117.986 72.3902C116.775 72.3902 115.794 71.4088 115.794 70.1981V66.3818C115.794 66.0632 116.052 65.8049 116.37 65.8049C116.689 65.8049 116.947 66.0632 116.947 66.3818V66.7927C116.947 67.3382 117.39 67.7805 117.935 67.7805H118.13C119.014 67.7805 119.663 67.9854 120.077 68.3951C120.49 68.7951 120.697 69.3463 120.697 70.0488C120.697 70.7122 120.481 71.2683 120.048 71.7171C119.615 72.1659 118.928 72.3902 117.986 72.3902ZM117.914 68.878C117.38 68.878 116.947 69.3107 116.947 69.8443V70.3408C116.947 70.8665 117.373 71.2927 117.899 71.2927C118.947 71.2927 119.471 70.8927 119.471 70.0927C119.471 69.2829 118.952 68.878 117.914 68.878Z" fill="#27D1CE"/>
<path d="M129.983 71.0325C130.256 70.8451 130.653 70.8681 130.832 71.1461C130.946 71.3219 130.94 71.5534 130.793 71.7025C130.246 72.2585 129.49 72.5366 128.526 72.5366C127.488 72.5366 126.647 72.2244 126.002 71.6C125.368 70.9756 125.051 70.1415 125.051 69.0976C125.051 68.1317 125.363 67.3171 125.988 66.6537C126.613 65.9902 127.396 65.6585 128.339 65.6585C129.285 65.6585 130.033 65.8586 130.585 66.2587C130.778 66.399 130.808 66.6653 130.689 66.8721C130.519 67.1657 130.12 67.2215 129.82 67.063C129.433 66.8584 128.992 66.7561 128.497 66.7561C127.892 66.7561 127.368 66.9805 126.925 67.4293C126.493 67.8683 126.276 68.4244 126.276 69.0976C126.276 69.8098 126.498 70.3756 126.94 70.7951C127.392 71.2244 127.949 71.439 128.613 71.439C129.132 71.439 129.589 71.3035 129.983 71.0325Z" fill="#27D1CE"/>
<path d="M137.994 71.8134C137.994 72.132 137.736 72.3902 137.417 72.3902C137.099 72.3902 136.84 72.132 136.84 71.8134V68.1518C136.84 67.5022 136.314 66.9756 135.664 66.9756C135.044 66.9756 134.53 67.457 134.49 68.0757L134.49 68.0878C134.413 68.9951 134.297 69.7512 134.143 70.3561C133.999 70.9512 133.807 71.4 133.567 71.7024C133.336 71.9951 133.091 72.2 132.831 72.3171C132.696 72.3728 132.546 72.414 132.38 72.4408C132.1 72.4861 131.863 72.2595 131.841 71.9767L131.818 71.6727C131.805 71.4969 131.957 71.3492 132.124 71.2927C132.24 71.2439 132.365 71.1463 132.499 71C132.644 70.8537 132.769 70.6585 132.874 70.4146C132.99 70.1707 133.091 69.8293 133.177 69.3902C133.273 68.9415 133.336 68.4293 133.365 67.8537C133.429 66.704 134.381 65.8049 135.532 65.8049H135.673C136.955 65.8049 137.994 66.8438 137.994 68.1254V71.8134Z" fill="#27D1CE"/>
<path d="M140.593 71.5707C139.959 70.9073 139.641 70.0829 139.641 69.0976C139.641 68.1024 139.959 67.2829 140.593 66.639C141.237 65.9854 142.074 65.6585 143.103 65.6585C144.131 65.6585 144.963 65.9854 145.598 66.639C146.242 67.2829 146.564 68.1024 146.564 69.0976C146.564 70.0927 146.242 70.9171 145.598 71.5707C144.963 72.2146 144.131 72.5366 143.103 72.5366C142.083 72.5366 141.247 72.2146 140.593 71.5707ZM141.502 67.4146C141.079 67.8439 140.867 68.4049 140.867 69.0976C140.867 69.7902 141.074 70.3512 141.487 70.7805C141.91 71.2195 142.449 71.439 143.103 71.439C143.756 71.439 144.29 71.2244 144.703 70.7951C145.126 70.3561 145.338 69.7902 145.338 69.0976C145.338 68.4244 145.126 67.8634 144.703 67.4146C144.29 66.9756 143.756 66.7561 143.103 66.7561C142.449 66.7561 141.915 66.9756 141.502 67.4146Z" fill="#27D1CE"/>
<path d="M149.382 71.8134C149.382 72.132 149.124 72.3902 148.805 72.3902C148.487 72.3902 148.229 72.132 148.229 71.8134V67.86C148.229 66.725 149.149 65.8049 150.284 65.8049H151.79C152.093 65.8049 152.339 66.0506 152.339 66.3537C152.339 66.6567 152.093 66.9024 151.79 66.9024H150.86C150.044 66.9024 149.382 67.5643 149.382 68.3807V71.8134Z" fill="#27D1CE"/>
<path d="M154.341 66.9494C154.051 67.0586 153.712 66.9244 153.617 66.6294C153.546 66.4116 153.632 66.1705 153.837 66.0692C154.392 65.7954 155 65.6585 155.66 65.6585C156.535 65.6585 157.17 65.878 157.564 66.3171C157.958 66.7561 158.155 67.4341 158.155 68.3512V71.8422C158.155 72.1449 157.91 72.3902 157.607 72.3902H157.28C157.158 72.3902 157.059 72.2913 157.059 72.1693C157.059 71.9606 156.778 71.854 156.613 71.9809C156.168 72.3221 155.624 72.4927 154.982 72.4927C154.386 72.4927 153.905 72.3122 153.54 71.9512C153.175 71.5805 152.992 71.0829 152.992 70.4585C152.992 69.8146 153.218 69.3073 153.67 68.9366C154.122 68.5561 154.713 68.3659 155.444 68.3659C155.462 68.3659 155.48 68.366 155.499 68.3662C156.185 68.3739 157.121 67.7766 156.756 67.1951C156.554 66.8732 156.165 66.7122 155.588 66.7122C155.177 66.7122 154.761 66.7913 154.341 66.9494ZM155.386 71.439C155.926 71.439 156.405 71.2404 156.823 70.8432C156.985 70.6892 157.059 70.4678 157.059 70.2442C157.059 69.9376 156.917 69.6366 156.636 69.5154C156.328 69.3832 155.984 69.3171 155.602 69.3171C155.208 69.3171 154.877 69.4146 154.607 69.6098C154.348 69.7951 154.218 70.0585 154.218 70.4C154.218 70.722 154.319 70.9756 154.521 71.161C154.732 71.3463 155.021 71.439 155.386 71.439Z" fill="#27D1CE"/>
<path d="M166 71.8134C166 72.132 165.742 72.3902 165.423 72.3902C165.105 72.3902 164.846 72.132 164.846 71.8134V71C164.846 70.2322 164.224 69.6098 163.456 69.6098H162.631C161.863 69.6098 161.241 70.2322 161.241 71V71.8134C161.241 72.132 160.983 72.3902 160.664 72.3902C160.345 72.3902 160.087 72.132 160.087 71.8134V66.3817C160.087 66.0632 160.345 65.8049 160.664 65.8049C160.983 65.8049 161.241 66.0632 161.241 66.3817V67.1585C161.241 67.9061 161.847 68.5122 162.594 68.5122H163.493C164.24 68.5122 164.846 67.9061 164.846 67.1585V66.3818C164.846 66.0632 165.105 65.8049 165.423 65.8049C165.742 65.8049 166 66.0632 166 66.3818V71.8134Z" fill="#27D1CE"/>
</svg>
