<svg width="149" height="446" viewBox="0 0 149 446" fill="none" xmlns="http://www.w3.org/2000/svg">
<path opacity="0.2" d="M0.516463 441.778C0.394062 442.598 0.959039 443.361 1.77837 443.484L15.1302 445.478C15.9495 445.601 16.713 445.036 16.8354 444.216C16.9578 443.397 16.3928 442.633 15.5735 442.511L3.70516 440.738L5.47817 428.87C5.60057 428.05 5.03559 427.287 4.21626 427.165C3.39692 427.042 2.6335 427.607 2.5111 428.427L0.516463 441.778ZM2.89231 443.206C4.26017 442.193 5.6167 441.179 6.96197 440.163L5.15408 437.769C3.81658 438.779 2.46781 439.788 1.10769 440.794L2.89231 443.206ZM14.899 434.047C17.5362 431.973 20.1276 429.891 22.6738 427.803L20.7714 425.483C18.2411 427.559 15.6656 429.627 13.0443 431.689L14.899 434.047ZM30.373 421.351C32.9188 419.17 35.4165 416.982 37.8668 414.788L35.8654 412.553C33.4317 414.733 30.9506 416.906 28.4214 419.072L30.373 421.351ZM45.2794 407.994C47.7255 405.699 50.1211 403.397 52.4669 401.088L50.3625 398.95C48.0339 401.242 45.6555 403.527 43.2267 405.806L45.2794 407.994ZM59.5411 393.949C61.8763 391.533 64.1584 389.109 66.3881 386.679L64.1776 384.651C61.9655 387.062 59.7012 389.466 57.3838 391.865L59.5411 393.949ZM73.0704 379.197C75.2805 376.654 77.4347 374.105 79.534 371.548L77.2156 369.644C75.1342 372.179 72.9979 374.707 70.806 377.229L73.0704 379.197ZM85.7703 363.729C87.8385 361.057 89.8483 358.379 91.8006 355.695L89.3744 353.93C87.4399 356.59 85.4481 359.244 83.398 361.893L85.7703 363.729ZM97.5382 347.549C99.4463 344.749 101.293 341.943 103.081 339.132L100.549 337.523C98.7791 340.307 96.9494 343.086 95.0592 345.859L97.5382 347.549ZM108.308 330.61C110.024 327.708 111.677 324.801 113.27 321.89L110.638 320.45C109.061 323.332 107.424 326.21 105.726 329.083L108.308 330.61ZM117.935 313.004C119.443 310.009 120.888 307.009 122.272 304.007L119.547 302.751C118.178 305.722 116.748 308.69 115.256 311.655L117.935 313.004ZM126.321 294.795C127.62 291.693 128.854 288.588 130.027 285.481L127.22 284.422C126.06 287.496 124.839 290.568 123.554 293.636L126.321 294.795ZM133.391 276.056C134.466 272.863 135.477 269.668 136.426 266.472L133.55 265.618C132.611 268.78 131.611 271.94 130.548 275.098L133.391 276.056ZM139.104 256.813C139.941 253.566 140.716 250.318 141.429 247.071L138.499 246.427C137.794 249.64 137.027 252.852 136.199 256.064L139.104 256.813ZM143.408 237.223C144.009 233.924 144.549 230.626 145.029 227.329L142.061 226.897C141.586 230.158 141.051 233.421 140.457 236.685L143.408 237.223ZM146.299 217.395C146.666 214.059 146.973 210.727 147.223 207.398L144.231 207.173C143.984 210.468 143.68 213.766 143.317 217.067L146.299 217.395ZM147.803 197.388C147.94 194.045 148.02 190.706 148.046 187.372L145.046 187.349C145.02 190.65 144.941 193.956 144.805 197.266L147.803 197.388ZM147.959 177.344C147.876 173.999 147.74 170.659 147.552 167.327L144.556 167.497C144.743 170.798 144.878 174.105 144.96 177.418L147.959 177.344ZM146.832 157.334C146.541 154.003 146.2 150.68 145.811 147.366L142.831 147.716C143.217 151.001 143.555 154.294 143.844 157.595L146.832 157.334ZM144.496 137.43C144.01 134.124 143.478 130.827 142.901 127.541L139.946 128.06C140.518 131.319 141.046 134.588 141.528 137.866L144.496 137.43ZM141.034 117.702C140.367 114.427 139.657 111.163 138.906 107.912L135.983 108.587C136.728 111.813 137.433 115.052 138.095 118.301L141.034 117.702ZM136.528 98.1831C135.694 94.9484 134.821 91.7272 133.911 88.5203L131.025 89.3396C131.929 92.5236 132.795 95.7213 133.623 98.9319L136.528 98.1831ZM131.063 78.9218C130.074 75.7289 129.051 72.5513 127.993 69.3898L125.148 70.3415C126.199 73.4818 127.215 76.6378 128.197 79.8087L131.063 78.9218ZM124.714 59.9333C123.586 56.79 122.425 53.6638 121.235 50.5558L118.433 51.6288C119.616 54.7175 120.769 57.8238 121.89 60.9469L124.714 59.9333ZM117.557 41.2409C116.298 38.1431 115.01 35.0647 113.696 32.0065L110.939 33.191C112.246 36.2314 113.526 39.2917 114.778 42.3708L117.557 41.2409ZM109.659 22.8564C108.281 19.8099 106.878 16.7849 105.452 13.7825L102.742 15.0694C104.16 18.0555 105.555 21.0637 106.926 24.0931L109.659 22.8564ZM101.076 4.77647C100.335 3.28525 99.5886 1.8 98.8374 0.320834L96.1626 1.67917C96.9098 3.15066 97.6521 4.62815 98.3893 6.11151L101.076 4.77647Z" fill="url(#paint0_linear_138_543)"/>
<defs>
<linearGradient id="paint0_linear_138_543" x1="74.2773" y1="1" x2="74.2773" y2="442" gradientUnits="userSpaceOnUse">
<stop stop-color="white" stop-opacity="0"/>
<stop offset="1" stop-color="white"/>
</linearGradient>
</defs>
</svg>
